<svg width="25" height="25" viewBox="0 0 25 25" fill="none" xmlns="http://www.w3.org/2000/svg">
<path d="M13.3926 7.14282H11.6069V11.6071H7.14258V13.3928H11.6069V17.8571H13.3926V13.3928H17.8569V11.6071H13.3926V7.14282Z" fill="#22302C"/>
<path d="M25 5.35714V0H19.6429V1.78571H5.35714V0H0V5.35714H1.78571V19.6429H0V25H5.35714V23.2143H19.6429V25H25V19.6429H23.2143V5.35714H25ZM21.4286 1.78571H23.2143V3.57143H21.4286V1.78571ZM1.78571 1.78571H3.57143V3.57143H1.78571V1.78571ZM3.57143 23.2143H1.78571V21.4286H3.57143V23.2143ZM23.2143 23.2143H21.4286V21.4286H23.2143V23.2143ZM21.4286 19.6429H19.6429V21.4286H5.35714V19.6429H3.57143V5.35714H5.35714V3.57143H19.6429V5.35714H21.4286V19.6429Z" fill="#22302C"/>
</svg>
