<svg width="76" height="76" viewBox="0 0 76 76" fill="none" xmlns="http://www.w3.org/2000/svg">
<g filter="url(#filter0_d_175_3265)">
<path d="M8 36C8 19.4315 21.4315 6 38 6C54.5685 6 68 19.4315 68 36C68 52.5685 54.5685 66 38 66C21.4315 66 8 52.5685 8 36Z" fill="#FFC324"/>
<path d="M62 36C62 48.6645 51.2937 59 38 59C24.7063 59 14 48.6645 14 36C14 23.3355 24.7063 13 38 13C51.2937 13 62 23.3355 62 36Z" fill="#FFC324" stroke="#FFC324" stroke-width="2"/>
<path d="M45.35 35.7001V37.9501H39.2V44.2801H36.95V37.9501H30.77V35.7001H36.95V29.4001H39.2V35.7001H45.35Z" fill="#22302C"/>
<path d="M45.35 35.7001H46.35V34.7001H45.35V35.7001ZM45.35 37.9501V38.9501H46.35V37.9501H45.35ZM39.2 37.9501V36.9501H38.2V37.9501H39.2ZM39.2 44.2801V45.2801H40.2V44.2801H39.2ZM36.95 44.2801H35.95V45.2801H36.95V44.2801ZM36.95 37.9501H37.95V36.9501H36.95V37.9501ZM30.77 37.9501H29.77V38.9501H30.77V37.9501ZM30.77 35.7001V34.7001H29.77V35.7001H30.77ZM36.95 35.7001V36.7001H37.95V35.7001H36.95ZM36.95 29.4001V28.4001H35.95V29.4001H36.95ZM39.2 29.4001H40.2V28.4001H39.2V29.4001ZM39.2 35.7001H38.2V36.7001H39.2V35.7001ZM44.35 35.7001V37.9501H46.35V35.7001H44.35ZM45.35 36.9501H39.2V38.9501H45.35V36.9501ZM38.2 37.9501V44.2801H40.2V37.9501H38.2ZM39.2 43.2801H36.95V45.2801H39.2V43.2801ZM37.95 44.2801V37.9501H35.95V44.2801H37.95ZM36.95 36.9501H30.77V38.9501H36.95V36.9501ZM31.77 37.9501V35.7001H29.77V37.9501H31.77ZM30.77 36.7001H36.95V34.7001H30.77V36.7001ZM37.95 35.7001V29.4001H35.95V35.7001H37.95ZM36.95 30.4001H39.2V28.4001H36.95V30.4001ZM38.2 29.4001V35.7001H40.2V29.4001H38.2ZM39.2 36.7001H45.35V34.7001H39.2V36.7001Z" fill="#FFC324"/>
</g>
<defs>
<filter id="filter0_d_175_3265" x="0" y="0" width="76" height="76" filterUnits="userSpaceOnUse" color-interpolation-filters="sRGB">
<feFlood flood-opacity="0" result="BackgroundImageFix"/>
<feColorMatrix in="SourceAlpha" type="matrix" values="0 0 0 0 0 0 0 0 0 0 0 0 0 0 0 0 0 0 127 0" result="hardAlpha"/>
<feOffset dy="2"/>
<feGaussianBlur stdDeviation="4"/>
<feColorMatrix type="matrix" values="0 0 0 0 0 0 0 0 0 0 0 0 0 0 0 0 0 0 0.25 0"/>
<feBlend mode="normal" in2="BackgroundImageFix" result="effect1_dropShadow_175_3265"/>
<feBlend mode="normal" in="SourceGraphic" in2="effect1_dropShadow_175_3265" result="shape"/>
</filter>
</defs>
</svg>
