<svg width="16" height="16" viewBox="0 0 16 16" fill="none" xmlns="http://www.w3.org/2000/svg">
<path d="M15.35 6.70007V8.95007H9.2V15.2801H6.95V8.95007H0.77V6.70007H6.95V0.400068H9.2V6.70007H15.35Z" fill="#22302C"/>
<path d="M15.35 6.70007H16.35V5.70007H15.35V6.70007ZM15.35 8.95007V9.95007H16.35V8.95007H15.35ZM9.2 8.95007V7.95007H8.2V8.95007H9.2ZM9.2 15.2801V16.2801H10.2V15.2801H9.2ZM6.95 15.2801H5.95V16.2801H6.95V15.2801ZM6.95 8.95007H7.95V7.95007H6.95V8.95007ZM0.77 8.95007H-0.23V9.95007H0.77V8.95007ZM0.77 6.70007V5.70007H-0.23V6.70007H0.77ZM6.95 6.70007V7.70007H7.95V6.70007H6.95ZM6.95 0.400068V-0.599932H5.95V0.400068H6.95ZM9.2 0.400068H10.2V-0.599932H9.2V0.400068ZM9.2 6.70007H8.2V7.70007H9.2V6.70007ZM14.35 6.70007V8.95007H16.35V6.70007H14.35ZM15.35 7.95007H9.2V9.95007H15.35V7.95007ZM8.2 8.95007V15.2801H10.2V8.95007H8.2ZM9.2 14.2801H6.95V16.2801H9.2V14.2801ZM7.95 15.2801V8.95007H5.95V15.2801H7.95ZM6.95 7.95007H0.77V9.95007H6.95V7.95007ZM1.77 8.95007V6.70007H-0.23V8.95007H1.77ZM0.77 7.70007H6.95V5.70007H0.77V7.70007ZM7.95 6.70007V0.400068H5.95V6.70007H7.95ZM6.95 1.40007H9.2V-0.599932H6.95V1.40007ZM8.2 0.400068V6.70007H10.2V0.400068H8.2ZM9.2 7.70007H15.35V5.70007H9.2V7.70007Z" fill="#FFC324"/>
</svg>
