<svg width="6" height="7" viewBox="0 0 6 7" fill="none" xmlns="http://www.w3.org/2000/svg">
<path d="M1.5463 4.79998C1.46182 4.79998 1.37857 4.79623 1.29605 4.78897L0.00650024 6.02694C0.782111 6.31209 1.62716 6.37546 2.43948 6.20938C3.25181 6.0433 3.99664 5.65489 4.58392 5.0911C5.1712 4.52731 5.5758 3.81228 5.74879 3.03244C5.92179 2.25261 5.85578 1.44136 5.55875 0.696777L4.2692 1.93475C4.27676 2.01397 4.28067 2.09389 4.28067 2.17498C4.28086 2.51975 4.21027 2.86118 4.07292 3.17974C3.93557 3.49831 3.73417 3.78776 3.48022 4.03155C3.22627 4.27534 2.92476 4.46869 2.59292 4.60054C2.26109 4.7324 1.90543 4.80017 1.5463 4.79998Z" fill="#B1830A"/>
</svg>
