<svg width="22" height="19" viewBox="0 0 22 19" fill="none" xmlns="http://www.w3.org/2000/svg">
<path d="M21.1468 8.5703C20.2886 6.83452 19.2673 5.4189 18.0829 4.32343L16.8407 5.51593C17.8536 6.44523 18.736 7.66093 19.4989 9.17499C17.4676 13.2109 14.5843 15.1281 10.6439 15.1281C9.46113 15.1281 8.37169 14.9533 7.3756 14.6036L6.02965 15.8957C7.41312 16.509 8.9512 16.8156 10.6439 16.8156C15.3363 16.8156 18.8373 14.4695 21.1468 9.77734C21.2397 9.58863 21.2878 9.38252 21.2878 9.17382C21.2878 8.96512 21.2397 8.75901 21.1468 8.5703ZM19.5948 1.0553L18.5541 0.0549912C18.5359 0.0375581 18.5144 0.0237284 18.4907 0.0142926C18.467 0.00485679 18.4416 0 18.4159 0C18.3902 0 18.3648 0.00485679 18.3411 0.0142926C18.3174 0.0237284 18.2958 0.0375581 18.2777 0.0549912L15.6075 2.61718C14.1354 1.8953 12.4808 1.53437 10.6439 1.53437C5.95153 1.53437 2.45055 3.88046 0.14098 8.57265C0.0481461 8.76136 0 8.96747 0 9.17616C0 9.38486 0.0481461 9.59097 0.14098 9.77968C1.06367 11.6453 2.17451 13.1407 3.4735 14.2659L0.890003 16.7453C0.853403 16.7805 0.832843 16.8281 0.832843 16.8778C0.832843 16.9276 0.853403 16.9752 0.890003 17.0104L1.93224 18.0109C1.96886 18.0461 2.01852 18.0658 2.0703 18.0658C2.12208 18.0658 2.17174 18.0461 2.20836 18.0109L19.5948 1.32062C19.613 1.3032 19.6274 1.28252 19.6372 1.25976C19.6471 1.237 19.6521 1.2126 19.6521 1.18796C19.6521 1.16332 19.6471 1.13892 19.6372 1.11616C19.6274 1.0934 19.613 1.07272 19.5948 1.0553ZM1.78893 9.17499C3.82262 5.13905 6.70592 3.22187 10.6439 3.22187C11.9755 3.22187 13.1861 3.44124 14.2845 3.88726L12.5682 5.53491C11.7554 5.11858 10.8247 4.96406 9.91345 5.09416C9.00219 5.22426 8.15862 5.63208 7.50717 6.25747C6.85573 6.88286 6.43091 7.69269 6.29539 8.5675C6.15987 9.44231 6.32082 10.3358 6.7545 11.1161L4.71788 13.0712C3.59069 12.1162 2.61901 10.8222 1.78893 9.17499ZM7.81188 9.17499C7.81231 8.76171 7.91428 8.35434 8.10951 7.986C8.30475 7.61765 8.58773 7.29872 8.93549 7.05509C9.28325 6.81147 9.68596 6.65003 10.1109 6.58389C10.5359 6.51775 10.9711 6.54877 11.3812 6.67444L7.94152 9.97655C7.8553 9.71743 7.81157 9.44701 7.81188 9.17499Z" fill="#B1830A"/>
</svg>
