<svg width="16" height="15" viewBox="0 0 16 15" fill="none" xmlns="http://www.w3.org/2000/svg">
<path d="M15 6.99979H3.14L6.77 2.63979C6.93974 2.43557 7.0214 2.17229 6.99702 1.90786C6.97264 1.64344 6.84422 1.39953 6.64 1.22979C6.43578 1.06005 6.1725 0.978387 5.90808 1.00277C5.64365 1.02715 5.39974 1.15557 5.23 1.35979L0.23 7.35979C0.196361 7.40751 0.166279 7.45765 0.14 7.50979C0.14 7.55979 0.14 7.58979 0.0700002 7.63979C0.0246737 7.75445 0.000941121 7.8765 0 7.99979C0.000941121 8.12308 0.0246737 8.24513 0.0700002 8.35979C0.0700002 8.40979 0.0699999 8.43979 0.14 8.48979C0.166279 8.54193 0.196361 8.59206 0.23 8.63979L5.23 14.6398C5.32402 14.7527 5.44176 14.8434 5.57485 14.9057C5.70793 14.9679 5.85309 15 6 14.9998C6.23365 15.0002 6.46009 14.9189 6.64 14.7698C6.74126 14.6858 6.82496 14.5827 6.88631 14.4664C6.94766 14.35 6.98546 14.2227 6.99754 14.0918C7.00961 13.9608 6.99573 13.8287 6.95669 13.7031C6.91764 13.5775 6.8542 13.4608 6.77 13.3598L3.14 8.99979H15C15.2652 8.99979 15.5196 8.89443 15.7071 8.70689C15.8946 8.51936 16 8.265 16 7.99979C16 7.73457 15.8946 7.48022 15.7071 7.29268C15.5196 7.10514 15.2652 6.99979 15 6.99979Z" fill="#3C9191"/>
</svg>
