<svg width="41" height="41" viewBox="0 0 41 41" fill="none" xmlns="http://www.w3.org/2000/svg">
<path d="M41 20.5C41 25.9369 38.8402 31.1512 34.9957 34.9957C31.1512 38.8402 25.9369 41 20.5 41C15.0631 41 9.84881 38.8402 6.00431 34.9957C2.15982 31.1512 0 25.9369 0 20.5C0 15.0631 2.15982 9.84881 6.00431 6.00431C9.84881 2.15982 15.0631 0 20.5 0C25.9369 0 31.1512 2.15982 34.9957 6.00431C38.8402 9.84881 41 15.0631 41 20.5ZM30.8269 12.7356C30.6438 12.5532 30.4259 12.4096 30.1861 12.3134C29.9463 12.2171 29.6895 12.1702 29.4311 12.1755C29.1728 12.1808 28.9181 12.2381 28.6824 12.344C28.4468 12.4499 28.2348 12.6023 28.0594 12.792L19.1598 24.1311L13.7965 18.7652C13.4322 18.4257 12.9503 18.2409 12.4524 18.2497C11.9545 18.2585 11.4795 18.4602 11.1273 18.8123C10.7752 19.1644 10.5735 19.6395 10.5647 20.1373C10.556 20.6352 10.7408 21.1171 11.0802 21.4814L17.8606 28.2644C18.0433 28.4467 18.2608 28.5904 18.5002 28.6868C18.7396 28.7833 18.9959 28.8305 19.254 28.8257C19.512 28.8209 19.7664 28.7642 20.0021 28.659C20.2377 28.5537 20.4498 28.4021 20.6256 28.2131L30.8551 15.4262C31.2038 15.0637 31.3965 14.5788 31.3917 14.0757C31.3869 13.5726 31.185 13.0915 30.8294 12.7356H30.8269Z" fill="#FFC324"/>
</svg>
