<svg width="13" height="14" viewBox="0 0 13 14" fill="none" xmlns="http://www.w3.org/2000/svg">
<path d="M6.5 0.828125C3.02148 0.828125 0.203125 3.64648 0.203125 7.125C0.203125 10.6035 3.02148 13.4219 6.5 13.4219C9.97852 13.4219 12.7969 10.6035 12.7969 7.125C12.7969 3.64648 9.97852 0.828125 6.5 0.828125ZM8.83594 8.77539L8.32812 9.41016C8.25195 9.51172 8.15039 9.58789 7.99805 9.58789C7.92188 9.58789 7.82031 9.53711 7.76953 9.48633L6.06836 8.2168C5.81445 8.03906 5.6875 7.75977 5.6875 7.42969V3.46875C5.6875 3.26562 5.86523 3.0625 6.09375 3.0625H6.90625C7.10938 3.0625 7.3125 3.26562 7.3125 3.46875V7.125L8.78516 8.2168C8.86133 8.29297 8.9375 8.39453 8.9375 8.52148C8.9375 8.62305 8.88672 8.72461 8.83594 8.77539Z" fill="#FFFEF5"/>
</svg>
