<svg width="26" height="23" viewBox="0 0 26 23" fill="none" xmlns="http://www.w3.org/2000/svg">
<path d="M4.56348 3.68848C4.56348 2.85967 4.93975 2.06482 5.60952 1.47877C6.2793 0.892717 7.1877 0.563477 8.13491 0.563477C9.08211 0.563477 9.99051 0.892717 10.6603 1.47877C11.3301 2.06482 11.7063 2.85967 11.7063 3.68848C11.7063 4.51728 11.3301 5.31213 10.6603 5.89818C9.99051 6.48424 9.08211 6.81348 8.13491 6.81348C7.1877 6.81348 6.2793 6.48424 5.60952 5.89818C4.93975 5.31213 4.56348 4.51728 4.56348 3.68848ZM8.13491 2.12598C7.6613 2.12598 7.2071 2.2906 6.87222 2.58362C6.53733 2.87665 6.34919 3.27408 6.34919 3.68848C6.34919 4.10288 6.53733 4.50031 6.87222 4.79333C7.2071 5.08636 7.6613 5.25098 8.13491 5.25098C8.60851 5.25098 9.06271 5.08636 9.3976 4.79333C9.73248 4.50031 9.92062 4.10288 9.92062 3.68848C9.92062 3.27408 9.73248 2.87665 9.3976 2.58362C9.06271 2.2906 8.60851 2.12598 8.13491 2.12598Z" fill="#22302C"/>
<path d="M16.6691 6.16266C16.295 5.91296 15.9809 5.60104 15.745 5.24481C15.5091 4.88859 15.356 4.49508 15.2944 4.08691C15.2328 3.67873 15.264 3.26394 15.3862 2.86635C15.5084 2.46876 15.7192 2.09622 16.0065 1.77014C16.2938 1.44406 16.6518 1.17086 17.0601 0.966241C17.4684 0.761622 17.9189 0.629619 18.3857 0.577815C18.8525 0.526011 19.3264 0.555427 19.7802 0.664375C20.2339 0.773323 20.6586 0.959653 21.0298 1.21266C21.7607 1.72423 22.2329 2.4664 22.3447 3.27949C22.4566 4.09257 22.1992 4.91159 21.6279 5.56031C21.0567 6.20903 20.2172 6.63561 19.2901 6.74826C18.3631 6.86091 17.4225 6.65063 16.6709 6.16266H16.6691ZM18.8495 2.12516C18.3759 2.12516 17.9216 2.28978 17.5868 2.58281C17.2519 2.87583 17.0637 3.27326 17.0637 3.68766C17.0637 4.10206 17.2519 4.49949 17.5868 4.79251C17.9216 5.08554 18.3759 5.25016 18.8495 5.25016C19.3231 5.25016 19.7773 5.08554 20.1121 4.79251C20.447 4.49949 20.6352 4.10206 20.6352 3.68766C20.6352 3.27326 20.447 2.87583 20.1121 2.58281C19.7773 2.28978 19.3231 2.12516 18.8495 2.12516Z" fill="#22302C"/>
<path d="M3.67076 8.375H8.43862C8.24219 8.86406 8.13505 9.39062 8.13505 9.9375H3.67076C3.43396 9.9375 3.20686 10.0198 3.03941 10.1663C2.87197 10.3128 2.7779 10.5115 2.7779 10.7187C2.7779 11.9953 3.35826 12.9422 4.27433 13.5859C4.69576 13.8828 5.20112 14.1219 5.77255 14.2969C5.35292 14.6872 5.02955 15.1488 4.82255 15.6531C4.22314 15.4424 3.66192 15.1566 3.15647 14.8047C1.81362 13.8594 0.992188 12.4625 0.992188 10.7187C0.992188 10.0971 1.27439 9.50101 1.77672 9.06147C2.27905 8.62193 2.96036 8.375 3.67076 8.375Z" fill="#22302C"/>
<path d="M10.3992 8.37507C9.92556 9.09323 9.7974 9.94659 10.0429 10.7474C10.2883 11.5483 10.8873 12.231 11.7081 12.6454C12.5288 13.0598 13.5041 13.1719 14.4194 12.9571C15.3346 12.7424 16.1148 12.2182 16.5884 11.5001C17.0621 10.7819 17.1902 9.92855 16.9447 9.12771C16.6993 8.32687 16.1003 7.64416 15.2795 7.22976C14.4588 6.81536 13.4835 6.70322 12.5683 6.918C11.653 7.13279 10.8728 7.65692 10.3992 8.37507ZM13.092 8.41413C13.3537 8.36242 13.6252 8.36278 13.8867 8.4152C14.1481 8.46762 14.3928 8.57075 14.6026 8.71699C14.8124 8.86322 14.982 9.04882 15.0989 9.26008C15.2157 9.47134 15.2768 9.70287 15.2777 9.93757C15.2776 10.2316 15.1827 10.5196 15.0039 10.7685C14.8251 11.0174 14.5696 11.2171 14.2669 11.3446C13.9642 11.4722 13.6265 11.5225 13.2926 11.4897C12.9587 11.4568 12.6422 11.3423 12.3794 11.1591C12.1166 10.9759 11.9182 10.7316 11.807 10.4542C11.6958 10.1767 11.6762 9.8775 11.7507 9.59082C11.8251 9.30413 11.9904 9.04163 12.2277 8.83349C12.465 8.62534 12.7646 8.47999 13.092 8.41413Z" fill="#22302C"/>
<path d="M22.7102 13.5859C22.2888 13.8828 21.7834 14.1219 21.212 14.2969C21.631 14.6873 21.9537 15.1489 22.1602 15.6531C22.7673 15.4359 23.3298 15.1531 23.828 14.8047C25.1709 13.8594 25.9923 12.4625 25.9923 10.7187C25.9923 10.0971 25.7101 9.50101 25.2078 9.06147C24.7055 8.62193 24.0242 8.375 23.3138 8.375H18.5459C18.7423 8.86406 18.8495 9.39062 18.8495 9.9375H23.3138C23.5506 9.9375 23.7777 10.0198 23.9451 10.1663C24.1125 10.3128 24.2066 10.5115 24.2066 10.7187C24.2066 11.9953 23.6263 12.9422 22.7102 13.5859Z" fill="#22302C"/>
<path d="M17.9568 14.625C18.6672 14.625 19.3485 14.8719 19.8508 15.3115C20.3531 15.751 20.6353 16.3472 20.6353 16.9688C20.6353 18.7125 19.8157 20.1094 18.471 21.0547C17.1478 21.9844 15.3728 22.4375 13.4925 22.4375C11.6121 22.4375 9.83712 21.9844 8.5139 21.0547C7.17105 20.1094 6.34962 18.7125 6.34962 16.9688C6.34868 16.6607 6.41732 16.3556 6.55159 16.0709C6.68587 15.7861 6.88314 15.5274 7.13205 15.3096C7.38097 15.0918 7.67663 14.9192 8.00203 14.8017C8.32744 14.6842 8.67617 14.6242 9.02819 14.625H17.9568ZM17.9568 16.1875H9.02819C8.79139 16.1875 8.56429 16.2698 8.39684 16.4163C8.2294 16.5628 8.13533 16.7616 8.13533 16.9688C8.13533 18.2453 8.71569 19.1922 9.63176 19.8359C10.571 20.4953 11.921 20.875 13.4925 20.875C15.0639 20.875 16.4139 20.4953 17.3532 19.8359C18.2693 19.1922 18.8496 18.2453 18.8496 16.9688C18.8496 16.7616 18.7555 16.5628 18.5881 16.4163C18.4207 16.2698 18.1936 16.1875 17.9568 16.1875Z" fill="#22302C"/>
</svg>
