<svg width="13" height="15" viewBox="0 0 13 15" fill="none" xmlns="http://www.w3.org/2000/svg">
<path d="M10.8333 10.6024C10.2844 10.6024 9.79333 10.8283 9.41778 11.1822L4.26833 8.05723C4.30444 7.88404 4.33333 7.71084 4.33333 7.53012C4.33333 7.3494 4.30444 7.17621 4.26833 7.00301L9.36 3.90813C9.75 4.28464 10.2628 4.51807 10.8333 4.51807C12.0322 4.51807 13 3.50904 13 2.25904C13 1.00904 12.0322 0 10.8333 0C9.63444 0 8.66667 1.00904 8.66667 2.25904C8.66667 2.43976 8.69556 2.61295 8.73167 2.78614L3.64 5.88102C3.25 5.50452 2.73722 5.27108 2.16667 5.27108C0.967778 5.27108 0 6.28012 0 7.53012C0 8.78012 0.967778 9.78916 2.16667 9.78916C2.73722 9.78916 3.25 9.55572 3.64 9.17922L8.78222 12.3117C8.74611 12.4699 8.72444 12.6355 8.72444 12.8012C8.72444 14.0136 9.67056 15 10.8333 15C11.9961 15 12.9422 14.0136 12.9422 12.8012C12.9422 11.5889 11.9961 10.6024 10.8333 10.6024Z" fill="#FFC324"/>
</svg>
